<svg fill="none" height="24" viewBox="0 0 24 24" width="24" xmlns="http://www.w3.org/2000/svg"><g fill="#292d32"><path d="m21.0901 21.5c0 .28-.22.5-.5.5h-17.17994c-.28 0-.5-.22-.5-.5 0-4.14 4.07999-7.5 9.09004-7.5 1.03 0 2.03.14 2.95.41-.59.7-.95 1.61-.95 2.59 0 .75.2099 1.46.5799 2.06.2.34.46.65.76.91.7.64 1.6301 1.03 2.6601 1.03 1.12 0 2.13-.46 2.85-1.2.16.54.2399 1.11.2399 1.7z" opacity=".4"/><path d="m20.97 14.33c-.72-.82-1.79-1.33-2.97-1.33-1.12 0-2.14.46-2.87 1.21-.7.72-1.13 1.71-1.13 2.79 0 .75.21 1.46.58 2.06.2.34.46.65.76.91.7.64 1.63 1.03 2.66 1.03 1.46 0 2.73-.78 3.42-1.94.21-.34.37-.73.46-1.13.08-.3.12-.61.12-.93 0-1.02-.39-1.96-1.03-2.67zm-1.47 3.4h-.75v.78c0 .41-.34.75-.75.75s-.75-.34-.75-.75v-.78h-.75c-.41 0-.75-.34-.75-.75s.34-.75.75-.75h.75v-.71c0-.41.34-.75.75-.75s.75.34.75.75v.71h.75c.41 0 .75.34.75.75s-.34.75-.75.75z"/><path d="m12 12c2.7614 0 5-2.23858 5-5s-2.2386-5-5-5c-2.76142 0-5 2.23858-5 5s2.23858 5 5 5z"/></g></svg>