<svg fill="none" height="24" viewBox="0 0 24 24" width="24" xmlns="http://www.w3.org/2000/svg"><g stroke="#292d32" stroke-linecap="round" stroke-linejoin="round" stroke-width="1.5"><path d="m10.7516 16.8604v2.03c0 1.72-1.60002 3.11-3.57002 3.11s-3.58002-1.39-3.58002-3.11v-2.03c0 1.72 1.60002 2.94 3.58002 2.94 1.97 0 3.57002-1.23 3.57002-2.94z"/><path d="m10.7501 14.11c0 .5-.14.96-.38 1.36-.59004.97-1.80006 1.58-3.20006 1.58s-2.61001-.62-3.20001-1.58c-.24-.4-.37994-.86-.37994-1.36 0-.86.39998-1.63 1.03998-2.19.65-.57 1.53996-.91 2.52996-.91s1.88003.35 2.53003.91c.66004.55 1.06004 1.33 1.06004 2.19z"/><path d="m10.7516 14.11v2.75c0 1.72-1.60002 2.94-3.57002 2.94s-3.58002-1.23-3.58002-2.94v-2.75c0-1.72 1.60002-3.11 3.58002-3.11.99 0 1.88003.35 2.53003.91.63999.56 1.03999 1.34 1.03999 2.2z"/><path d="m22 10.9699v2.0601c0 .55-.44.9999-1 1.0199h-1.9601c-1.08 0-2.0699-.79-2.1599-1.87-.06-.63.1799-1.22.5999-1.63.37-.38.8801-.59995 1.4401-.59995h2.08c.56.02 1 .46995 1 1.01995z"/><path d="m2 10.5v-2c0-2.72 1.64-4.62 4.19-4.94.26-.04.53-.06.81-.06h9c.26 0 .51.00999.75.04999 2.58.3 4.25 2.21001 4.25 4.95001v1.45001h-2.08c-.56 0-1.07.21999-1.44.59999-.42.41-.66 1-.6 1.63.09 1.08 1.08 1.87 2.16 1.87h1.96v1.45c0 3-2 5-5 5h-2.5"/></g></svg>