<svg width="44" height="44" viewBox="0 0 44 44" fill="none" xmlns="http://www.w3.org/2000/svg">
<path opacity="0.4" d="M38.6652 39.4167C38.6652 39.93 38.2619 40.3333 37.7486 40.3333H6.25199C5.73866 40.3333 5.33533 39.93 5.33533 39.4167C5.33533 31.8267 12.8153 25.6667 22.0004 25.6667C23.8887 25.6667 25.7221 25.9233 27.4087 26.4183C26.3271 27.7017 25.6671 29.37 25.6671 31.1667C25.6671 32.5417 26.0519 33.8433 26.7302 34.9433C27.0969 35.5667 27.5736 36.135 28.1236 36.6117C29.4069 37.785 31.1121 38.5 33.0004 38.5C35.0537 38.5 36.9054 37.6567 38.2254 36.3C38.5187 37.29 38.6652 38.335 38.6652 39.4167Z" fill="#00ACEF"/>
<path d="M38.4451 26.2717C37.1251 24.7683 35.1634 23.8333 33.0001 23.8333C30.9467 23.8333 29.0767 24.6767 27.7384 26.0517C26.4551 27.3717 25.6667 29.1867 25.6667 31.1667C25.6667 32.5417 26.0517 33.8433 26.7301 34.9433C27.0967 35.5667 27.5734 36.135 28.1234 36.6117C29.4067 37.785 31.1117 38.5 33.0001 38.5C35.6767 38.5 38.0051 37.07 39.2701 34.9433C39.6551 34.32 39.9484 33.605 40.1134 32.8717C40.2601 32.3217 40.3334 31.7533 40.3334 31.1667C40.3334 29.2967 39.6184 27.5733 38.4451 26.2717ZM35.7501 32.505H34.3751V33.935C34.3751 34.6867 33.7517 35.31 33.0001 35.31C32.2484 35.31 31.6251 34.6867 31.6251 33.935V32.505H30.2501C29.4984 32.505 28.8751 31.8817 28.8751 31.13C28.8751 30.3783 29.4984 29.755 30.2501 29.755H31.6251V28.4533C31.6251 27.7017 32.2484 27.0783 33.0001 27.0783C33.7517 27.0783 34.3751 27.7017 34.3751 28.4533V29.755H35.7501C36.5017 29.755 37.1251 30.3783 37.1251 31.13C37.1251 31.8817 36.5017 32.505 35.7501 32.505Z" fill="#5B2597"/>
<path d="M22 22C27.0626 22 31.1667 17.8959 31.1667 12.8333C31.1667 7.77073 27.0626 3.66666 22 3.66666C16.9374 3.66666 12.8334 7.77073 12.8334 12.8333C12.8334 17.8959 16.9374 22 22 22Z" fill="#5B2597"/>
</svg>
