<svg width="35" height="36" viewBox="0 0 35 36" fill="none" xmlns="http://www.w3.org/2000/svg">
<path d="M2.91669 29C2.91669 23.582 8.53127 19.2 15.4438 19.2C16.8438 19.2 18.2 19.382 19.4688 19.718M15.4438 15C17.3776 15 19.2323 14.2625 20.5998 12.9497C21.9672 11.637 22.7354 9.85652 22.7354 8C22.7354 6.14348 21.9672 4.36301 20.5998 3.05025C19.2323 1.7375 17.3776 1 15.4438 1C13.5099 1 11.6552 1.7375 10.2878 3.05025C8.92033 4.36301 8.1521 6.14348 8.1521 8C8.1521 9.85652 8.92033 11.637 10.2878 12.9497C11.6552 14.2625 13.5099 15 15.4438 15Z" stroke="#5B2597" stroke-width="1.5" stroke-linecap="round" stroke-linejoin="round"/>
<path d="M32.0833 27.6C32.0833 28.65 31.7771 29.644 31.2375 30.484C30.9312 30.988 30.5375 31.436 30.0854 31.8C29.0646 32.682 27.7229 33.2 26.25 33.2C25.2445 33.202 24.2559 32.9526 23.3814 32.4764C22.5068 32.0002 21.7766 31.3135 21.2625 30.484C20.7073 29.6166 20.4145 28.618 20.4166 27.6C20.4166 25.836 21.2625 24.254 22.6041 23.232C23.4616 22.5722 24.4959 22.1584 25.5877 22.0384C26.6794 21.9183 27.7844 22.0968 28.7751 22.5533C29.7658 23.0098 30.602 23.7258 31.1873 24.6187C31.7726 25.5116 32.0832 26.545 32.0833 27.6Z" stroke="#00ACEF" stroke-miterlimit="10" stroke-linecap="round" stroke-linejoin="round"/>
<path d="M23.975 27.6L25.4187 28.986L28.525 26.228" stroke="#00ACEF" stroke-linecap="round" stroke-linejoin="round"/>
</svg>
