<svg width="30" height="30" viewBox="0 0 30 30" fill="none" xmlns="http://www.w3.org/2000/svg">
<path d="M4.26245 27.5C4.26245 22.6625 9.07495 18.75 15 18.75M27.5 27.5L26.25 26.25M15 15C16.6576 15 18.2473 14.3415 19.4194 13.1694C20.5915 11.9973 21.25 10.4076 21.25 8.75C21.25 7.0924 20.5915 5.50269 19.4194 4.33058C18.2473 3.15848 16.6576 2.5 15 2.5C13.3423 2.5 11.7526 3.15848 10.5805 4.33058C9.40843 5.50269 8.74995 7.0924 8.74995 8.75C8.74995 10.4076 9.40843 11.9973 10.5805 13.1694C11.7526 14.3415 13.3423 15 15 15ZM22.75 26.75C23.8108 26.75 24.8282 26.3286 25.5784 25.5784C26.3285 24.8283 26.75 23.8109 26.75 22.75C26.75 21.6891 26.3285 20.6717 25.5784 19.9216C24.8282 19.1714 23.8108 18.75 22.75 18.75C21.6891 18.75 20.6717 19.1714 19.9215 19.9216C19.1714 20.6717 18.75 21.6891 18.75 22.75C18.75 23.8109 19.1714 24.8283 19.9215 25.5784C20.6717 26.3286 21.6891 26.75 22.75 26.75Z" stroke="#5B2597" stroke-width="1.5" stroke-linecap="round" stroke-linejoin="round"/>
</svg>
