<svg width="40" height="41" viewBox="0 0 40 41" fill="none" xmlns="http://www.w3.org/2000/svg">
<path d="M20 20.9687C22.2101 20.9687 24.3297 20.0908 25.8925 18.528C27.4553 16.9652 28.3333 14.8455 28.3333 12.6354C28.3333 10.4253 27.4553 8.30566 25.8925 6.74286C24.3297 5.18005 22.2101 4.30208 20 4.30208C17.7898 4.30208 15.6702 5.18005 14.1074 6.74286C12.5446 8.30566 11.6666 10.4253 11.6666 12.6354C11.6666 14.8455 12.5446 16.9652 14.1074 18.528C15.6702 20.0908 17.7898 20.9687 20 20.9687Z" stroke="#5B2597" stroke-width="1.5" stroke-linecap="round" stroke-linejoin="round"/>
<path d="M32.0167 27.2021L26.1167 33.1021C25.8833 33.3354 25.6667 33.7687 25.6167 34.0854L25.3 36.3354C25.1833 37.1521 25.75 37.7187 26.5667 37.6021L28.8167 37.2854C29.1333 37.2354 29.5833 37.0187 29.8 36.7854L35.7 30.8854C36.7167 29.8687 37.2 28.6854 35.7 27.1854C34.2167 25.7021 33.0333 26.1854 32.0167 27.2021Z" stroke="#5B2597" stroke-width="1.5" stroke-miterlimit="10" stroke-linecap="round" stroke-linejoin="round"/>
<path d="M31.1666 28.0521C31.6666 29.8521 33.0666 31.2521 34.8666 31.7521" stroke="#00ACEF" stroke-width="1.5" stroke-miterlimit="10" stroke-linecap="round" stroke-linejoin="round"/>
<path d="M5.68335 37.6354C5.68335 31.1854 12.1 25.9688 20 25.9688C21.7333 25.9688 23.4 26.2188 24.95 26.6854" stroke="#00ACEF" stroke-width="1.5" stroke-linecap="round" stroke-linejoin="round"/>
</svg>
