<svg width="40" height="41" viewBox="0 0 40 41" fill="none" xmlns="http://www.w3.org/2000/svg">
<path d="M25.9667 20.9688C25.9667 24.2688 23.3 26.9354 20 26.9354C16.7 26.9354 14.0333 24.2688 14.0333 20.9688C14.0333 17.6688 16.7 15.0021 20 15.0021C23.3 15.0021 25.9667 17.6688 25.9667 20.9688Z" stroke="#00ACEF" stroke-width="1.5" stroke-linecap="round" stroke-linejoin="round"/>
<path d="M20 34.7521C25.8833 34.7521 31.3667 31.2854 35.1833 25.2854C36.6833 22.9354 36.6833 18.9854 35.1833 16.6354C31.3667 10.6354 25.8833 7.16875 20 7.16875C14.1166 7.16875 8.63332 10.6354 4.81665 16.6354C3.31665 18.9854 3.31665 22.9354 4.81665 25.2854C8.63332 31.2854 14.1166 34.7521 20 34.7521Z" stroke="#5B2597" stroke-linecap="round" stroke-linejoin="round"/>
</svg>
