<svg width="40" height="41" viewBox="0 0 40 41" fill="none" xmlns="http://www.w3.org/2000/svg">
<path d="M17.9194 28.1319V31.5152C17.9194 34.3819 15.2527 36.6986 11.9694 36.6986C8.68605 36.6986 6.00269 34.3819 6.00269 31.5152V28.1319C6.00269 30.9986 8.66939 33.0319 11.9694 33.0319C15.2527 33.0319 17.9194 30.9819 17.9194 28.1319Z" stroke="#00ACEF" stroke-width="1.5" stroke-linecap="round" stroke-linejoin="round"/>
<path d="M17.9169 23.5479C17.9169 24.3812 17.6835 25.1479 17.2835 25.8146C16.3001 27.4312 14.2834 28.4479 11.9501 28.4479C9.61677 28.4479 7.60009 27.4146 6.61675 25.8146C6.21675 25.1479 5.98352 24.3812 5.98352 23.5479C5.98352 22.1146 6.65015 20.8312 7.71682 19.8979C8.80016 18.9479 10.2834 18.3812 11.9334 18.3812C13.5834 18.3812 15.0668 18.9646 16.1501 19.8979C17.2502 20.8146 17.9169 22.1146 17.9169 23.5479Z" stroke="#00ACEF" stroke-width="1.5" stroke-linecap="round" stroke-linejoin="round"/>
<path d="M17.9194 23.5479V28.1312C17.9194 30.9979 15.2527 33.0312 11.9694 33.0312C8.68605 33.0312 6.00269 30.9812 6.00269 28.1312V23.5479C6.00269 20.6812 8.66939 18.3646 11.9694 18.3646C13.6194 18.3646 15.1028 18.9479 16.1861 19.8812C17.2528 20.8146 17.9194 22.1146 17.9194 23.5479Z" stroke="#00ACEF" stroke-width="1.5" stroke-linecap="round" stroke-linejoin="round"/>
<path d="M36.6667 18.3144V21.7479C36.6667 22.6646 35.9334 23.4144 35 23.4477H31.7332C29.9332 23.4477 28.2834 22.1311 28.1334 20.3311C28.0334 19.2811 28.4332 18.2977 29.1332 17.6144C29.7499 16.9811 30.6 16.6145 31.5334 16.6145H35C35.9334 16.6478 36.6667 17.3977 36.6667 18.3144Z" stroke="#5B2597" stroke-width="1.5" stroke-linecap="round" stroke-linejoin="round"/>
<path d="M3.33337 17.5312V14.1979C3.33337 9.66458 6.06671 6.49791 10.3167 5.96458C10.75 5.89791 11.2 5.86458 11.6667 5.86458H26.6667C27.1 5.86458 27.5167 5.88123 27.9167 5.94789C32.2167 6.4479 35 9.63125 35 14.1979V16.6146H31.5334C30.6 16.6146 29.75 16.9812 29.1334 17.6146C28.4334 18.2979 28.0334 19.2812 28.1334 20.3313C28.2834 22.1313 29.9334 23.4479 31.7334 23.4479H35V25.8646C35 30.8646 31.6667 34.1979 26.6667 34.1979H22.5" stroke="#5B2597" stroke-width="1.5" stroke-linecap="round" stroke-linejoin="round"/>
</svg>
